<svg width="2000" height="2000" viewBox="0 0 2000 2000" fill="none" xmlns="http://www.w3.org/2000/svg">
<path d="M1569.28 1364.78C1699.86 1048.11 1481.3 822.458 1354.98 744.604C1149.86 645.489 593.286 624.539 497.606 910.63C401.925 1196.72 855.938 1446.21 1056.68 1402.13C1257.42 1358.04 1474.11 1147.01 1322.14 965.973C1276.49 916.571 1091.39 862.605 716.169 1041.95C247.148 1266.13 102.689 941.573 147.715 765.241C183.529 624.985 308.121 298.119 931.919 336.577C1430.96 367.343 1707.05 635.172 1782.72 765.241C1854.64 886.868 1945.94 1229.55 1695.49 1301.78C1445.03 1374 1410.59 1665.95 1410.59 1665.95" stroke="black" stroke-width="97.814" stroke-linecap="round"/>
</svg>
